<?xml version="1.0" encoding="utf-8"?>
<!-- Generator: Adobe Illustrator 25.1.0, SVG Export Plug-In . SVG Version: 6.00 Build 0)  -->
<svg version="1.1" id="Layer_1" xmlns="http://www.w3.org/2000/svg" xmlns:xlink="http://www.w3.org/1999/xlink" x="0px" y="0px"
	 viewBox="0 0 1024 1024" style="enable-background:new 0 0 1024 1024;" xml:space="preserve">
<style type="text/css">
	.st0{fill:#0C47A9;}
	.st1{fill:#F0151F;}
</style>
<polygon class="st0" points="970.7,333.6 1012.2,129.5 804.4,129.7 763,333.6 "/>
<path class="st0" d="M691,688l-41.9,205.8h150.4c34.4,0,65.1-37.8,76.5-94.5L898.7,688H691z"/>
<polygon class="st0" points="562.6,333.6 604,129.5 396.2,129.7 354.9,333.6 "/>
<path class="st0" d="M282.9,688L241,893.8h150.4c34.4,0,65.1-37.8,76.5-94.5L490.6,688H282.9z"/>
<polygon class="st1" points="318.3,613.7 110.6,613.7 68.7,407.9 276.5,407.9 "/>
<polygon class="st0" points="53.7,333.6 12.2,129.5 220,129.7 261.4,333.6 "/>
<path class="st0" d="M333.4,688l41.9,205.8H224.8c-34.4,0-65.1-37.8-76.5-94.5L125.7,688H333.4z"/>
<polygon class="st1" points="813.3,407.9 747.9,407.9 547.5,407.9 360.5,407.9 339.7,407.9 297.9,613.7 360.5,613.7 505.6,613.7 
	706.1,613.7 813.3,613.7 913.8,613.7 955.7,407.9 "/>
</svg>
