<?xml version="1.0" encoding="utf-8"?>
<!-- Generator: Adobe Illustrator 25.1.0, SVG Export Plug-In . SVG Version: 6.00 Build 0)  -->
<svg version="1.1" id="Layer_1" xmlns="http://www.w3.org/2000/svg" xmlns:xlink="http://www.w3.org/1999/xlink" x="0px" y="0px"
	 viewBox="0 0 300 100" style="enable-background:new 0 0 300 100;" xml:space="preserve">
<style type="text/css">
	.st0{fill:#FFFFFF;}
</style>
<g>
	<g>
		<path class="st0" d="M136.4,62.2H133v-1.4h8.7v1.4h-3.4v13.6h-2L136.4,62.2L136.4,62.2z"/>
		<path class="st0" d="M145.2,60.1v5.3c0.3-0.6,1.3-1.3,2.8-1.3c2.2,0,2.9,1.3,2.9,2.9v8.8h-2.1v-8.4c0-1-0.1-1.8-1.5-1.8
			c-1.7,0-2.1,1-2.1,2.7v7.6h-2.1V60.1H145.2z"/>
		<path class="st0" d="M155.5,70.5v1.8c0,1.3,0.3,2.2,2,2.2c1.4,0,1.7-0.8,1.7-2.1l0,0h2.1l0,0c0,1.3-0.3,3.4-3.8,3.4
			c-3.4,0-4.1-1.7-4.1-3.9v-4.3c0-1.7,0.8-3.6,4.1-3.6c2.9,0,3.8,1.7,3.8,3.6c0,0.6,0,1.8,0,2.7h-5.8V70.5L155.5,70.5z M159.1,69.2
			v-1.4c0-1-0.1-2.1-1.7-2.1c-1.4,0-2,0.8-2,2.1v1.4H159.1z"/>
		<path class="st0" d="M175.4,60.1v12.8c0,1.4,0,2.2,0,2.9h-2.1c0-0.1,0-0.8,0-1.3c-0.3,0.6-1,1.3-2.8,1.3c-2.7,0-3.4-1.4-3.4-3.6
			v-4.8c0-2.1,1-3.5,3.5-3.5c1.4,0,2.1,0.4,2.4,0.8v-4.9h2.2v0.3C175.2,60.1,175.4,60.1,175.4,60.1z M169.4,67.8v4.8
			c0,1.4,0.6,2.2,1.7,2.2c1.5,0,2-1.3,2-2.7v-3.6c0-1.3-0.1-2.5-2-2.5C169.9,65.7,169.4,66.5,169.4,67.8z"/>
		<path class="st0" d="M178.2,68.3c0-1.8,0-2.9,0-3.9h2.1c0,0.1,0,1,0,1.8c0.6-1.4,2-1.8,3.4-2.1v2.1c-2,0-3.1,0.8-3.1,2.9V76h-2.1
			v-7.6h-0.3L178.2,68.3L178.2,68.3z"/>
		<path class="st0" d="M185.1,64.4h2.1v11.5h-2.1V64.4z M185.1,60.1h2.1v2.2h-2.1V60.1z"/>
		<path class="st0" d="M191.4,64.4c0.6,1.8,2,7.6,2.2,9.7l0,0c0.1-2.1,1.7-7.6,2.2-9.7h2.2l-3.4,11.5h-2.7l-3.1-11.5H191.4z"/>
		<path class="st0" d="M201.5,70.5v1.8c0,1.3,0.3,2.2,2,2.2c1.4,0,1.7-0.8,1.7-2.1l0,0h2.1l0,0c0,1.3-0.3,3.4-3.8,3.4
			c-3.4,0-4.1-1.7-4.1-3.9v-4.3c0-1.7,0.8-3.6,4.1-3.6c2.9,0,3.8,1.7,3.8,3.6c0,0.6,0,1.8,0,2.7h-5.8V70.5z M205.1,69.2v-1.4
			c0-1-0.1-2.1-1.7-2.1c-1.4,0-2,0.8-2,2.1v1.4H205.1z"/>
		<path class="st0" d="M221.1,67.8v4.8c0,2.5-1.5,3.6-4.1,3.6c-2.4,0-4.1-1-4.1-3.5v-4.9c0-2.2,1.5-3.5,4.1-3.5
			C219.7,64.3,221.1,65.5,221.1,67.8z M215.4,67.5v4.9c0,1.3,0.6,2.1,2,2.1c1.3,0,2-0.6,2-2.1v-4.9c0-1.3-0.6-2.1-2-2.1
			C216,65.7,215.4,66.2,215.4,67.5z"/>
		<path class="st0" d="M224.1,76.1V66h-1.5v-1.4h1.5v-1.7c0-1.4,0.7-2.7,3.1-2.7c0.3,0,0.8,0,1,0v1.4c-0.1,0-0.6,0-0.7,0
			c-1,0-1.4,0.6-1.4,1.4v1.4h2v1.4h-2v10.1h-2L224.1,76.1L224.1,76.1z"/>
		<path class="st0" d="M234.8,64.4c1,4.1,2,8.3,2.1,9.5l0,0c0.3-1.8,1.4-5.6,2.2-9.5h2.2l-3.5,12.2c-0.8,3.4-2.2,3.5-3.8,3.5
			c-0.3,0-0.8,0-1.3,0v-1.4c0.1,0,0.6,0,0.8,0c1,0,1.5-0.4,2.1-2.1l-3.4-11.9h2.4v-0.3C234.6,64.4,234.8,64.4,234.8,64.4z"/>
		<path class="st0" d="M250.7,67.8v4.8c0,2.5-1.5,3.6-4.1,3.6c-2.4,0-4.1-1-4.1-3.5v-4.9c0-2.2,1.5-3.5,4.1-3.5
			C249.3,64.3,250.7,65.5,250.7,67.8z M244.9,67.5v4.9c0,1.3,0.6,2.1,2,2.1c1.3,0,2-0.6,2-2.1v-4.9c0-1.3-0.6-2.1-2-2.1
			C245.4,65.7,244.9,66.2,244.9,67.5z"/>
		<path class="st0" d="M261.1,73c0,1.4,0,2.5,0,3.1H259c0-0.1-0.1-0.8-0.1-1.3c-0.6,1-1.4,1.4-2.8,1.4c-1.3,0-2.9-0.4-2.9-2.9v-8.8
			h2.1v8.4c0,1.4,0.6,1.8,1.5,1.8c1,0,2-0.4,2-2.7v-7.6h2.1v8.4h0.3V73H261.1z"/>
		<path class="st0" d="M263.8,68.3c0-1.8,0-2.9,0-3.9h2.1c0,0.1,0,1,0,1.8c0.6-1.4,2-1.8,3.4-2.1v2.1c-2,0-3.1,0.8-3.1,2.9V76h-2.1
			v-7.6h-0.3V68.3z"/>
		<path class="st0" d="M275,76.1v-16h2.1V76L275,76.1L275,76.1z"/>
		<path class="st0" d="M279.9,64.4h2.1v11.5h-2.1V64.4z M279.9,60.1h2.1v2.2h-2.1V60.1z"/>
		<path class="st0" d="M285.3,76.1V66h-1.5v-1.4h1.5v-1.7c0-1.4,0.7-2.7,3.1-2.7c0.3,0,0.8,0,1,0v1.4c-0.1,0-0.6,0-0.7,0
			c-1,0-1.4,0.6-1.4,1.4v1.4h2v1.4h-2v10.1h-2V76.1z"/>
		<path class="st0" d="M292.5,70.5v1.8c0,1.3,0.3,2.2,2,2.2c1.4,0,1.7-0.8,1.7-2.1l0,0h2.1l0,0c0,1.3-0.3,3.4-3.8,3.4
			c-3.4,0-4.1-1.7-4.1-3.9v-4.3c0-1.7,0.8-3.6,4.1-3.6c2.9,0,3.8,1.7,3.8,3.6c0,0.6,0,1.8,0,2.7h-5.8L292.5,70.5L292.5,70.5z
			 M296.2,69.2v-1.4c0-1-0.1-2.1-1.7-2.1c-1.4,0-2,0.8-2,2.1v1.4H296.2z"/>
	</g>
</g>
<g>
	<g>
		<polygon class="st0" points="46.4,30.2 48.3,20.9 38.7,20.9 36.8,30.2 		"/>
		<path class="st0" d="M33.5,46.6l-1.9,9.5h6.9c1.6,0,3-1.7,3.5-4.3l1-5.2H33.5z"/>
		<polygon class="st0" points="27.6,30.2 29.5,20.9 20,20.9 18,30.2 		"/>
		<path class="st0" d="M14.7,46.6l-1.9,9.5h6.9c1.6,0,3-1.7,3.5-4.3l1-5.2H14.7z"/>
		<polygon class="st0" points="16.4,43.2 6.8,43.2 4.9,33.7 14.4,33.7 		"/>
		<polygon class="st0" points="4.1,30.2 2.3,20.9 11.9,20.9 13.7,30.2 		"/>
		<path class="st0" d="M17,46.6l1.9,9.5H12c-1.6,0-3-1.7-3.5-4.3l-1-5.2C7.5,46.6,17,46.6,17,46.6z"/>
		<polygon class="st0" points="39.1,33.7 36.2,33.7 26.9,33.7 18.3,33.7 17.3,33.7 15.5,43.2 18.3,43.2 24.9,43.2 34.2,43.2 
			39.1,43.2 43.7,43.2 45.6,33.7 		"/>
	</g>
	<path class="st0" d="M72.8,56h-8.7L52.5,21.4h8.1l7.9,27.1h0.2l7.9-27.1h7.9L72.8,56z"/>
	<path class="st0" d="M86.2,56V30.3H93v4.6h0.1c0.4-1.6,1.2-2.9,2.3-3.7c1.1-0.9,2.3-1.3,3.9-1.3c0.7,0,1.4,0.1,2,0.3v6.2
		c-0.7-0.3-1.5-0.4-2.5-0.4c-1.7,0-3.1,0.5-4,1.5c-1,1-1.4,2.4-1.4,4.2v14.4h-7.2C86.2,56.1,86.2,56,86.2,56z"/>
	<path class="st0" d="M124.3,52.5c-2.3,2.4-5.4,3.6-9.3,3.6s-7-1.2-9.3-3.6c-2.3-2.4-3.4-5.7-3.4-9.9c0-4.1,1.2-7.4,3.5-9.8
		s5.4-3.6,9.3-3.6s7,1.2,9.3,3.6s3.5,5.7,3.5,9.8C127.7,46.8,126.6,50.1,124.3,52.5z M115,50.7c1.7,0,3.1-0.7,4.1-2.1
		c1-1.4,1.5-3.4,1.5-5.9s-0.5-4.5-1.5-5.9s-2.4-2.1-4.1-2.1s-3.1,0.7-4.1,2.1c-1,1.4-1.5,3.4-1.5,5.9c0,2.6,0.5,4.5,1.5,5.9
		C111.9,50,113.3,50.7,115,50.7z"/>
	<path class="st0" d="M152.4,52.5c-2.3,2.4-5.4,3.6-9.3,3.6s-7-1.2-9.3-3.6c-2.3-2.4-3.4-5.7-3.4-9.9c0-4.1,1.2-7.4,3.5-9.8
		s5.4-3.6,9.3-3.6c3.9,0,7,1.2,9.3,3.6s3.5,5.7,3.5,9.8C155.9,46.8,154.7,50.1,152.4,52.5z M143.1,50.7c1.7,0,3.1-0.7,4.1-2.1
		c1-1.4,1.5-3.4,1.5-5.9s-0.5-4.5-1.5-5.9s-2.4-2.1-4.1-2.1c-1.7,0-3.1,0.7-4.1,2.1c-1,1.4-1.5,3.4-1.5,5.9c0,2.6,0.5,4.5,1.5,5.9
		C140,50,141.4,50.7,143.1,50.7z"/>
	<path class="st0" d="M159.5,56V30.3h6.8V35h0.1c0.5-1.6,1.5-2.8,2.8-3.7c1.3-0.9,2.8-1.4,4.6-1.4c1.9,0,3.4,0.5,4.6,1.4
		c1.2,0.9,2.1,2.2,2.5,3.9h0.1c0.6-1.6,1.6-2.9,3-3.8c1.4-1,3.1-1.4,5-1.4c2.5,0,4.6,0.8,6.1,2.4c1.5,1.6,2.3,3.7,2.3,6.3v17.5h-7
		v-16c0-1.5-0.4-2.6-1.1-3.4c-0.7-0.8-1.8-1.2-3.1-1.2s-2.4,0.4-3.2,1.3c-0.8,0.9-1.2,2-1.2,3.5V56h-6.7V40c0-1.4-0.4-2.4-1.1-3.2
		c-0.7-0.8-1.8-1.2-3-1.2c-1.3,0-2.4,0.5-3.2,1.4s-1.2,2.1-1.2,3.5V56C166.6,56,159.5,56,159.5,56z"/>
	<path class="st0" d="M232.5,56h-7.2V41.5h-15.6v14.6h-7.2V21.4h7.2v14h15.6v-14h7.2V56z"/>
	<path class="st0" d="M243.9,26.5c-0.7,0.7-1.6,1.1-2.7,1.1s-1.9-0.4-2.7-1.1c-0.7-0.7-1.1-1.6-1.1-2.6s0.4-1.9,1.1-2.6
		c0.7-0.7,1.6-1,2.7-1s1.9,0.3,2.7,1c0.7,0.7,1.1,1.6,1.1,2.6C245,24.9,244.7,25.8,243.9,26.5z M237.8,56V30.3h7V56
		C244.8,56,237.8,56,237.8,56z"/>
	<path class="st0" d="M272.9,30.3L264.1,56h-7.9l-8.9-25.7h7.5l5.3,19.5h0.1l5.3-19.5C265.5,30.3,272.9,30.3,272.9,30.3z"/>
	<path class="st0" d="M291.7,47.6h6.4c-0.4,2.5-1.6,4.6-3.8,6.1c-2.1,1.5-4.8,2.3-7.9,2.3c-3.9,0-7-1.2-9.3-3.5
		c-2.2-2.4-3.4-5.6-3.4-9.7s1.1-7.4,3.4-9.8c2.2-2.5,5.2-3.7,9-3.7c3.7,0,6.7,1.2,8.9,3.5c2.2,2.3,3.3,5.5,3.3,9.4v2h-17.7v0.4
		c0,1.8,0.5,3.3,1.6,4.5c1.1,1.1,2.5,1.7,4.3,1.7c1.3,0,2.4-0.3,3.3-0.9C290.7,49.4,291.3,48.6,291.7,47.6z M286.2,34.4
		c-1.5,0-2.8,0.5-3.8,1.6c-1,1-1.6,2.4-1.7,4h10.9c-0.1-1.6-0.6-3-1.6-4C289,34.9,287.7,34.4,286.2,34.4z"/>
</g>
</svg>
